<svg xmlns="http://www.w3.org/2000/svg" viewBox="0 0 100 100" width="100" height="100">
  <defs>
    <linearGradient id="fav-blue" x1="0%" y1="0%" x2="100%" y2="100%">
      <stop offset="0%" stop-color="#1E3A8A" />
      <stop offset="100%" stop-color="#2563EB" />
    </linearGradient>
    <linearGradient id="fav-orange" x1="0%" y1="0%" x2="100%" y2="100%">
      <stop offset="0%" stop-color="#F97316" />
      <stop offset="100%" stop-color="#F37021" />
    </linearGradient>
  </defs>
  <rect x="5" y="5" width="90" height="90" rx="24" fill="url(#fav-blue)" />
  <path d="M 28 30 L 72 30 A 4 4 0 0 1 76 34 L 76 40 A 4 4 0 0 1 72 44 L 57 44 L 57 72 A 4 4 0 0 1 53 76 L 47 76 A 4 4 0 0 1 43 72 L 43 44 L 28 44 A 4 4 0 0 1 24 40 L 24 34 A 4 4 0 0 1 28 30 Z" fill="#FFFFFF"/>
  <path d="M 70 20 L 73 30 L 83 33 L 73 36 L 70 46 L 67 36 L 57 33 L 67 30 Z" fill="url(#fav-orange)" />
</svg>
